<?xml version="1.0" ?><svg viewBox="0 0 32 32" xmlns="http://www.w3.org/2000/svg"><title/><g id="Shower"><path d="M25.88,6H23.5V3a1,1,0,0,0-1-1H12.13A10.14,10.14,0,0,0,2,12.13V29a1,1,0,0,0,2,0V12.13A8.14,8.14,0,0,1,12.13,4H21.5V6H19.13A4.13,4.13,0,0,0,15,10.13V11a1,1,0,0,0,1,1H29a1,1,0,0,0,1-1v-.87A4.13,4.13,0,0,0,25.88,6ZM17,10a2.14,2.14,0,0,1,2.13-2h6.75A2.14,2.14,0,0,1,28,10Z"/><path d="M24.92,17.29v-2a1,1,0,0,0-2,0v2a1,1,0,0,0,2,0Z"/><path d="M25.94,17.38a1,1,0,0,0-1,1v2a1,1,0,0,0,2,0v-2A1,1,0,0,0,25.94,17.38Z"/><path d="M22.88,18.73a1,1,0,0,0-1,1v2a1,1,0,0,0,2,0v-2A1,1,0,0,0,22.88,18.73Z"/><path d="M25,22a1,1,0,0,0-1,1v2a1,1,0,0,0,2,0V23A1,1,0,0,0,25,22Z"/><path d="M26.42,12.29a1,1,0,0,0-1,1v2a1,1,0,0,0,2,0v-2A1,1,0,0,0,26.42,12.29Z"/><path d="M22.38,16.65v-2a1,1,0,0,0-2,0v2a1,1,0,0,0,2,0Z"/><path d="M19.79,15.67v-2a1,1,0,0,0-2,0v2a1,1,0,0,0,2,0Z"/><path d="M21,20.38v-2a1,1,0,1,0-2,0v2a1,1,0,0,0,2,0Z"/><path d="M21.38,22.65a1,1,0,0,0-1,1v2a1,1,0,0,0,2,0v-2A1,1,0,0,0,21.38,22.65Z"/></g></svg>