<?xml version="1.0" ?><svg viewBox="0 0 256 256" xmlns="http://www.w3.org/2000/svg"><rect fill="none" height="256" width="256"/><path d="M104,80H208a32,32,0,0,1,32,32v56a0,0,0,0,1,0,0H104a0,0,0,0,1,0,0V80A0,0,0,0,1,104,80Z" opacity="0.2"/><path d="M104,168V80H208a32,32,0,0,1,32,32v56" fill="none" stroke="#000" stroke-linecap="round" stroke-linejoin="round" stroke-width="16"/><line fill="none" stroke="#000" stroke-linecap="round" stroke-linejoin="round" stroke-width="16" x1="16" x2="16" y1="208" y2="48"/><polyline fill="none" points="16 168 240 168 240 208" stroke="#000" stroke-linecap="round" stroke-linejoin="round" stroke-width="16"/><line fill="none" stroke="#000" stroke-linecap="round" stroke-linejoin="round" stroke-width="16" x1="104" x2="16" y1="80" y2="80"/></svg>