<?xml version="1.0" ?><svg data-name="027_APPLIANCES" id="_027_APPLIANCES" viewBox="0 0 24 24" xmlns="http://www.w3.org/2000/svg"><defs><style>.cls-1{fill:#333;}</style></defs><path class="cls-1" d="M18,22H6a3,3,0,0,1-3-3V14.14a1,1,0,0,1,2,0V19a1,1,0,0,0,1,1H18a1,1,0,0,0,1-1V5a1,1,0,0,0-1-1H6A1,1,0,0,0,5,5v5.64a1,1,0,0,1-2,0V5A3,3,0,0,1,6,2H18a3,3,0,0,1,3,3V19A3,3,0,0,1,18,22Z"/><path class="cls-1" d="M15,7a1,1,0,0,1,1-1h0a1,1,0,0,1,1,1h0a1,1,0,0,1-1,1h0A1,1,0,0,1,15,7ZM11,7a1,1,0,0,1,1-1h0a1,1,0,0,1,1,1h0a1,1,0,0,1-1,1h0A1,1,0,0,1,11,7ZM7,7A1,1,0,0,1,8,6H8A1,1,0,0,1,9,7H9A1,1,0,0,1,8,8H8A1,1,0,0,1,7,7Z"/><path class="cls-1" d="M20,12H4a1,1,0,0,1,0-2H20a1,1,0,0,1,0,2Z"/><path class="cls-1" d="M8.32,19a1,1,0,0,1-.71-.29,1,1,0,0,1,0-1.42c.18-.18.21-.31-.15-1.18a2.4,2.4,0,0,1,.15-2.82A1,1,0,1,1,9,14.71L8.32,14l.71.71a5.37,5.37,0,0,1,.27.63A2.8,2.8,0,0,1,9,18.71,1,1,0,0,1,8.32,19Z"/><path class="cls-1" d="M12,19a1,1,0,0,1-.71-.29,1,1,0,0,1,0-1.42c.18-.18.21-.31-.15-1.18a2.39,2.39,0,0,1,.15-2.82,1,1,0,0,1,1.42,1.42L12,14l.7.71s.18.39.28.63a2.82,2.82,0,0,1-.27,3.37A1,1,0,0,1,12,19Z"/><path class="cls-1" d="M15.58,19a1,1,0,0,1-.71-1.71c.18-.18.21-.31-.15-1.18a2.39,2.39,0,0,1,.15-2.82,1,1,0,0,1,1.41,0,1,1,0,0,1,0,1.42l-.7-.71.7.71s.18.39.28.63a2.81,2.81,0,0,1-.28,3.37A1,1,0,0,1,15.58,19Z"/></svg>