<?xml version="1.0" ?><!DOCTYPE svg  PUBLIC '-//W3C//DTD SVG 1.1//EN'  'http://www.w3.org/Graphics/SVG/1.1/DTD/svg11.dtd'><svg enable-background="new 0 0 48 48" height="48px" version="1.1" viewBox="0 0 48 48" width="48px" xml:space="preserve" xmlns="http://www.w3.org/2000/svg" xmlns:xlink="http://www.w3.org/1999/xlink"><g id="Layer_4"><g><path d="M15.56,27.686c2.285-0.258,4.421-0.914,6.385-1.852l0.022,0.012l1.239-0.633l-0.02,0.027    c2.947-1.698,6.354-2.688,10.002-2.688c3.55,0,6.868,0.939,9.76,2.551v-2.372c-2.896-1.606-6.212-2.548-9.76-2.548    c-3.188,0-6.195,0.751-8.873,2.072l0.001-0.001l-2.407,1.099l-0.002-0.003c-2.023,1.006-4.235,1.712-6.614,1.982    c-3.626,0.412-7.12-0.189-10.24-1.542v2.244C8.242,27.465,11.833,28.107,15.56,27.686z" fill="#241F20"/><polygon fill="#241F20" points="45.474,8.842 45.474,41.684 2.526,41.684 2.526,8.842 0,8.842 0,44.211 48,44.211 48,8.842   "/><path d="M15.801,22.727v-1.726h5.716c0.128-0.062,0.263-0.111,0.39-0.176l0.002,0.004l2.407-1.1l-0.001,0.001    c1.299-0.64,2.679-1.141,4.116-1.492V12.19V9.632V8.21c0-1.046,0.849-1.895,1.895-1.895c0.973,0,1.765,0.733,1.873,1.674h2.526    c-0.116-2.337-2.03-4.2-4.399-4.2c-2.365,0-4.28,1.863-4.397,4.2h-0.021v1.642v1.789v2H15.801V12.75v-0.56V9.632V8.21    c0-1.046,0.848-1.895,1.895-1.895c0.971,0,1.762,0.733,1.873,1.674h2.526c-0.117-2.337-2.032-4.2-4.399-4.2    c-2.442,0-4.421,1.979-4.421,4.421v1.421v3.118v10.173c0.668-0.008,1.339-0.038,2.019-0.115    C15.465,22.789,15.63,22.751,15.801,22.727z M15.801,15.948h10.105v2.526H15.801V15.948z" fill="#241F20"/></g></g></svg>